inDegrees=no
num_controls=7
num_derivatives=13
num_iterations=154
num_multipliers=7
num_parameters=0
num_slacks=7
num_states=26
objective=0.516730
objective_accelerations=0.039713
objective_balance=0.002160
objective_effort=0.043558
objective_height=0.419670
objective_ligament=0.011630
solver_duration=2041.194825
status=Solve_Succeeded
success=true
DataType=double
version=3
OpenSimVersion=4.5
endheader
time	/jointset/ground_pelvis/pelvis_tilt/value	/jointset/ground_pelvis/pelvis_tx/value	/jointset/ground_pelvis/pelvis_ty/value	/jointset/hip_l/hip_flexion_l/value	/jointset/hip_l/hip_adduction_l/value	/jointset/hip_l/hip_rotation_l/value	/jointset/back/lumbar_extension/value	/jointset/patellofemoral_l/patellar_flexion_l/value	/jointset/knee_l/knee_flexion_l/value	/jointset/knee_l/knee_adduction_l/value	/jointset/knee_l/knee_rotation_l/value	/jointset/ankle_l/ankle_angle_l/value	/jointset/subtalar_l/subtalar_angle_l/value	/jointset/ground_pelvis/pelvis_tilt/speed	/jointset/ground_pelvis/pelvis_tx/speed	/jointset/ground_pelvis/pelvis_ty/speed	/jointset/hip_l/hip_flexion_l/speed	/jointset/hip_l/hip_adduction_l/speed	/jointset/hip_l/hip_rotation_l/speed	/jointset/back/lumbar_extension/speed	/jointset/patellofemoral_l/patellar_flexion_l/speed	/jointset/knee_l/knee_flexion_l/speed	/jointset/knee_l/knee_adduction_l/speed	/jointset/knee_l/knee_rotation_l/speed	/jointset/ankle_l/ankle_angle_l/speed	/jointset/subtalar_l/subtalar_angle_l/speed	/forceset/tau_hip_flexion_l	/forceset/tau_hip_adduction_l	/forceset/tau_hip_rotation_l	/forceset/tau_knee_flexion_l	/forceset/tau_ankle_angle_l	/forceset/tau_subtalar_angle_l	/forceset/tau_lumbar_extension	lambda_cid13_p0	lambda_cid13_p1	lambda_cid13_p2	lambda_cid13_p3	lambda_cid13_p4	lambda_cid13_p5	lambda_cid14_p0	/jointset/ground_pelvis/pelvis_tilt/accel	/jointset/ground_pelvis/pelvis_tx/accel	/jointset/ground_pelvis/pelvis_ty/accel	/jointset/hip_l/hip_flexion_l/accel	/jointset/hip_l/hip_adduction_l/accel	/jointset/hip_l/hip_rotation_l/accel	/jointset/back/lumbar_extension/accel	/jointset/patellofemoral_l/patellar_flexion_l/accel	/jointset/knee_l/knee_flexion_l/accel	/jointset/knee_l/knee_adduction_l/accel	/jointset/knee_l/knee_rotation_l/accel	/jointset/ankle_l/ankle_angle_l/accel	/jointset/subtalar_l/subtalar_angle_l/accel	gamma_cid13_p0	gamma_cid13_p1	gamma_cid13_p2	gamma_cid13_p3	gamma_cid13_p4	gamma_cid13_p5	gamma_cid14_p0
0	-0.0368080291474247	0.05667101353619034	0.9203418546350599	0.3085816938045678	-0.2956358079096881	-0.3015083369549487	-0.3879492264334186	0.2499269421185026	0.2499269421184919	-0.1745327285812647	-0.1744356033249025	-0.0008036623358878681	0.0004411700256923109	0	0	0	0	0	0	0	0	0	0	0	0	0	0.06207192442742444	-0.03807559213512927	-0.017683758036196	-0.224523838627725	0.1557585937121176	-0.01000986296237223	0.009665304925937392	6.124708350273864	0.4320355276887294	2.724039508252311	21.50401140501235	-628.9464097048182	-74.09735854637773	-23.19366999346595	-1.283606038499282	-2.179724154377287	-0.8436212137475962	8.74364076830331	-0.5626173729441502	2.628831707064861	-6.970478889899241	7.555699761293609	7.555699761293238	1.253993878201927	-0.08285465625491086	0.54405923293495	-0.4273650668964962	1.253878082854033e-08	1.012939920406739e-07	3.658871759118221e-08	-2.006949064459771e-08	1.305099320355931e-07	2.344399135483332e-08	2.516204159716478e-09
0.01	-0.03686839315455714	0.05656404877836996	0.9203006958448005	0.3090072760095067	-0.2956639518492277	-0.3013765676934416	-0.3882947076999193	0.2502967484321886	0.2502967484322065	-0.1744728810492434	-0.1744369494067098	-0.0007770817783870573	0.0004195688175345946	-0.01199359832822135	-0.02120934482632006	-0.008187300645326426	0.08457840222364357	-0.005579780686352646	0.0262272265852969	-0.06847308384947026	0.07358858758893369	0.07358858758892964	0.01194106437432458	-0.0002459763892522741	0.005397042980280644	-0.004240094608886344	0.0554967263884477	-0.04308204740845938	-0.01696630114435413	-0.2200105387270113	0.1504477643773727	-0.001566385742271261	0.01617079979197095	4.620608468153989	-2.932282113954756	3.215482474299669	20.25851057909034	-632.1611085644271	-80.51414224905365	-23.19793404727572	-1.145362482949439	-2.064002650746477	-0.7995897769720125	8.23423051868925	-0.5483279014685223	2.600673271683132	-6.692247714396954	7.204536481848423	7.204536481848057	1.159916212964245	0.008020204937457635	0.5496706669510382	-0.4103302807957751	-8.914759307846473e-09	9.976787399004567e-08	7.774480424549522e-08	6.174625537885258e-09	2.049559819111911e-08	-6.623532134072504e-09	-7.760798888947831e-10
0.02	-0.03704631829557426	0.05625049797148802	0.9201790029906785	0.3102625003505353	-0.2957464274926275	-0.3009863251385959	-0.3893062247213011	0.2513912602666291	0.2513912602666288	-0.1742944721742595	-0.1744400573853168	-0.0006941020238081911	0.0003579669387057893	-0.02351222677503821	-0.04131720981230983	-0.0161068127725272	0.1659284272190508	-0.01086634077221112	0.05169465866744131	-0.1332071509759412	0.1449411041440756	0.1449411041440719	0.02371226858531015	-0.0003523793705942697	0.01127983941561505	-0.008000134134216998	0.04892152834948195	-0.04808850268179977	-0.01624884425280132	-0.21549723882625	0.1451369350426329	0.006877091477824759	0.0226762946580168	3.174861834428226	-6.304615338690903	3.705688129661018	18.96553174050022	-634.4740667538988	-86.85619350262365	-23.2104317883149	-1.188612062218084	-1.9594281863115	-0.7900635101224721	8.097965322656087	-0.5039732528453181	2.476872806434368	-6.222675545299217	7.108485554535307	7.108485554535825	1.220021845534135	-0.05493997467287771	0.6412099239454037	-0.331354050185463	-3.036829944423328e-08	9.824175593941743e-08	1.189008908998082e-07	3.241874172036822e-08	-8.951873565335488e-08	-3.669105562297833e-08	-4.068363937506044e-09
0.03	-0.03733740199901668	0.05574059673693078	0.9199791084803147	0.3123168271974302	-0.2958805508686462	-0.3003454803621178	-0.3909485704305173	0.2531887777331757	0.2531887777331591	-0.1739996612580947	-0.1744440876543125	-0.0005508184896142999	0.0002605787367494741	-0.03463732359227274	-0.06055676539568625	-0.02385810825974199	0.2445392853395342	-0.01594005911277703	0.0763591588848265	-0.1948817234663995	0.2142416424228424	0.2142416424228306	0.03515676144338147	-0.0004477668976532244	0.01736066798273554	-0.01146321028306352	0.04336464100175055	-0.04347574439932034	-0.01560970926157867	-0.2111247883029626	0.1416615886469872	0.005700204618908592	0.02761512239618144	1.984436558008841	-5.636669706123213	3.658151829685379	18.8785853547665	-635.6051300883531	-84.71806089957192	-23.23062200534394	-1.064382334742868	-1.890271899794234	-0.7655837602119061	7.682992930663471	-0.5063578512532582	2.443953536272766	-6.08280799032936	6.792726780535829	6.792726780534243	1.092717070087718	0.01406599154464416	0.5890909959508527	-0.3516691997850689	-4.367611717549569e-08	1.010997000212457e-07	1.592159317988459e-07	4.654207504132784e-08	-1.50303227622669e-07	-5.737254963840867e-08	-7.801599981719518e-09
0.04	-0.03773772143929172	0.05504148941545019	0.9197021167766406	0.3151453320003114	-0.2960648687733896	-0.2994614476020894	-0.3931962538425216	0.2556696783456924	0.255669678345692	-0.1735931946005219	-0.1744488909719435	-0.0003472123351781636	0.0001289828127945139	-0.04535937414013953	-0.07915842719698142	-0.03152625143458199	0.3207640184167677	-0.0209052465169868	0.1003322553774995	-0.2542746915332281	0.2816177333411495	0.2816177333411279	0.04604341686721759	-0.0005069890940277029	0.02334436346407283	-0.01484167853394387	0.03780775365404602	-0.03886298611683486	-0.01497057427022487	-0.2067523377796719	0.1381862422513516	0.004523317760000487	0.03255395013435871	0.8478086092996961	-4.975437394270962	3.608594415914997	18.74120247145063	-635.9130719794292	-82.50899868078591	-23.25793671017746	-1.108002808344241	-1.831849429895516	-0.7734330476475214	7.620740314006162	-0.4822670655740705	2.338592061491943	-5.766354660573136	6.723596082443402	6.723596082443614	1.108454358687144	-0.04770690853599296	0.6217833067884716	-0.3144324705923141	-5.681598186747718e-08	1.040480371367328e-07	1.995136315482903e-07	6.041549531359624e-08	-2.100726713058974e-07	-7.786051727294264e-08	-1.154392781965675e-08
0.05	-0.03824367406553403	0.05415988467198379	0.9193487183267793	0.3187244289132521	-0.2962982032046729	-0.2983413101901112	-0.3960261382978955	0.2588149872824336	0.2588149872824389	-0.1730805133867647	-0.1744542578515973	-8.378266332563683e-05	-3.571623495246769e-05	-0.05578011130679417	-0.09702228307802478	-0.03914877070287561	0.394639470616135	-0.02573942275287192	0.1235717764954971	-0.3113190842720865	0.3471278562413515	0.3471278562413189	0.05639598808535457	-0.0005634853418950223	0.02936603004152202	-0.01806588338884934	0.03342528815652322	-0.03866373468894015	-0.01463950206932432	-0.2056740198524919	0.1385458059940035	0.005906072763190959	0.03684495477466576	1.040189029307392	-5.589834211299143	3.683909166491204	17.33024894729917	-636.4265546579011	-83.10872056398682	-23.29165338487033	-1.001454599183065	-1.742605709990027	-0.7560036887369715	7.208557426686308	-0.4806972472583773	2.298087275104531	-5.616014289694122	6.417293067954132	6.417293067952293	0.9841677279632244	0.01584662891323706	0.596028255069511	-0.3216166896185164	-6.845089125679842e-08	6.519648163615895e-08	2.319946471938149e-07	6.820275850879121e-08	-2.628763815929589e-07	-1.031950986680237e-07	-1.918739849643457e-08
0.06	-0.03885230314912187	0.05310385096114988	0.918919226219772	0.3230298022989395	-0.2965792202672475	-0.2969924865393223	-0.3994149732224895	0.2626059119830161	0.2626059119830185	-0.1724672046159069	-0.1744600961713406	0.0002405976586705758	-0.0002316977705842957	-0.06589466560769329	-0.1140442206704882	-0.04674498286382581	0.4660193129668639	-0.03044177277526358	0.1460695031395333	-0.3660647853769849	0.410740886107376	0.4107408861073316	0.06616892828694282	-0.0006012771167489726	0.03553449349282357	-0.02109817611090971	0.02904282265901725	-0.03846448326104591	-0.01430842986851094	-0.2045957019252867	0.1389053697366628	0.007288827766384701	0.04113595941498262	1.280812152045915	-6.210802595224432	3.758129213969053	15.86881014156097	-636.2017898098579	-83.64402002280742	-23.33097211349682	-1.046766235192846	-1.66346577217979	-0.7681716261788443	7.121618344278538	-0.4559018228753598	2.190233166699712	-5.30661633378097	6.344177475607945	6.344177475607996	0.992528155377448	-0.04396601393331162	0.6511426815586571	-0.2760500440233702	-8.002243410706027e-08	2.458493065701412e-08	2.641465392981218e-07	7.573376245863572e-08	-3.153867978422871e-07	-1.287337480109172e-07	-2.699512781905829e-08
0.07000000000000001	-0.03956068428369141	0.05188177059381287	0.9184138001899568	0.3280368218958877	-0.2969064276680079	-0.2954229182164755	-0.4033391228400613	0.2670236041593397	0.2670236041593358	-0.1717587421122438	-0.1744666656297128	0.0006273561958455815	-0.0004568725989340076	-0.07571918130999163	-0.1302343359302993	-0.05434156752876312	0.5349598164085466	-0.03496272180538681	0.1677175155794722	-0.4183441157921611	0.472468640114953	0.4724686401149292	0.07544232467458105	-0.0007006170629197885	0.0418326153416203	-0.02389261436686425	0.022968748876403	-0.03647896767359469	-0.01370736949036338	-0.201663104962412	0.1368759583100371	0.008240415260324626	0.04663231185055947	0.7103600678755075	-6.52922702479639	3.814642510892274	15.03633306632786	-636.3571049538067	-83.36193275693886	-23.37498540940779	-0.9409366048292602	-1.576141635560764	-0.7556672649489393	6.716541558734642	-0.4446741660442323	2.133046550149702	-5.125438043187297	6.037743500748476	6.037743500751457	0.8825845134984062	0.008928465769695991	0.6214555909628025	-0.2745481521892387	-8.773147897020219e-08	-6.191729177957923e-09	2.841505500905406e-07	8.122927314500302e-08	-3.519003746323314e-07	-1.45106994375874e-07	-3.223229050849366e-08
